<svg width="200" height="96" viewBox="0 0 200 96" fill="none" xmlns="http://www.w3.org/2000/svg">
<rect width="200" height="96" rx="12" fill="white"/>
<g opacity="0.4">
<g clip-path="url(#clip0_480_6217)">
<path d="M82.5048 45.7862C83.5345 45.7862 84.3691 44.9565 84.3691 43.9332C84.3691 42.9096 83.5345 42.0801 82.5048 42.0801C81.4751 42.0801 80.6405 42.9096 80.6405 43.9332C80.6405 44.9565 81.4751 45.7862 82.5048 45.7862ZM144.033 52.1175C143.749 51.9193 143.53 51.8865 143.349 52.2713C140.217 59.0103 134.941 55.6475 135.465 55.9434C136.635 55.4114 139.714 52.9582 139.248 49.5709C138.966 47.5008 137.178 46.5826 135.28 46.9114C131.967 47.4853 130.748 51.036 131.369 54.1796C131.477 54.7195 131.671 55.1647 131.865 55.6009C128.121 58.626 126.635 52.8928 126.466 52.2076C126.459 52.1709 129.357 49.7712 130.162 44.0528C131.007 38.0595 129.083 36.9683 127.115 37.0023C123.475 37.0653 122.491 44.6241 123.813 50.9238C123.702 50.9524 123.187 51.2359 122.359 51.2677C121.763 49.4052 119.218 47.7727 118.552 48.4018C116.885 49.9755 118.956 53.0522 120.414 53.2935C119.538 58.6522 114.062 57.3251 115.082 50.6114C116.865 47.321 118.221 42.4284 117.979 39.4749C117.893 38.4292 117.115 37.0281 115.356 37.0976C111.971 37.2307 111.603 44.7915 112 50.1578C111.98 50.0256 111.792 50.8097 110.405 51.1996C110.077 49.3902 107.145 47.574 106.455 48.4472C105.163 50.0815 107.402 52.9954 108.463 53.1987C107.587 58.5572 102.111 57.2301 103.131 50.5164C104.914 47.2262 106.27 42.3336 106.028 39.38C105.942 38.3342 105.164 36.9332 103.404 37.0025C100.02 37.1357 99.6521 44.6965 100.049 50.0628C100.029 49.9285 99.8362 50.7385 98.3927 51.1219C98.3444 48.7744 95.4017 47.698 94.6948 48.447C93.4349 49.7822 94.9833 52.5217 96.4158 53.1987C95.5402 58.5572 90.0646 57.2301 91.0839 50.5164C92.867 47.2262 94.2232 42.3336 93.9811 39.38C93.8955 38.3342 93.1174 36.9332 91.3577 37.0025C87.9734 37.1357 87.701 45.0766 88.0978 50.4427C86.9831 55.1886 83.2448 61.1153 83.7304 49.2429C83.7784 48.41 83.8308 48.0938 83.4129 47.7819C83.0998 47.5396 82.3878 47.6562 81.9986 47.6658C81.5256 47.6847 81.407 47.9597 81.3024 48.3754C81.0589 49.4489 81.0151 50.4895 80.9803 51.9094C80.9575 52.5736 80.9039 52.8835 80.6465 53.7892C80.3894 54.6947 78.9227 56.3497 78.1197 56.073C77.0057 55.6923 77.3712 52.5673 77.5799 50.4202C77.7539 48.7234 77.1968 47.9614 75.7697 47.6843C74.9342 47.5113 74.4265 47.5379 73.5564 47.2653C72.7335 47.0076 72.5475 45.4609 70.7924 45.9764C69.8325 46.2585 70.4496 48.2796 70.2189 49.7775C69.0847 57.1459 66.7246 57.3483 65.6298 53.7689C70.5608 41.7683 67.0562 37.0372 65.0047 37.0372C62.8681 37.0372 60.4256 38.4997 61.4599 47.857C60.957 47.7112 60.8024 47.6327 60.2519 47.6327C57.1384 47.6327 55.0172 50.1337 55.0172 53.2189C55.0172 56.3042 57.1385 58.8053 60.252 58.8053C62.09 58.8053 63.3804 57.9748 64.3578 56.6899C64.9954 57.5973 65.7719 58.8193 67.1919 58.7643C71.4243 58.6005 72.6552 49.9736 72.8005 49.4924C73.2529 49.5617 73.681 49.6928 74.0988 49.7621C74.795 49.866 74.8456 50.1398 74.8298 50.8356C74.6453 56.7029 75.7349 58.7573 78.2065 58.7573C79.5836 58.7573 80.8109 57.4129 81.6565 56.4515C82.288 57.7467 83.2943 58.7177 84.6443 58.7572C87.9156 58.838 89.1681 53.657 89.0539 54.3388C88.9642 54.8738 90.1152 58.728 93.4829 58.742C97.6545 58.7594 98.43 54.2009 98.5224 53.4373C98.534 53.2854 98.5391 53.3012 98.5224 53.4373L98.5192 53.4836C99.8436 53.2388 100.527 52.5332 100.527 52.5332C100.527 52.5332 101.59 58.8129 105.53 58.7421C109.62 58.6685 110.392 54.5478 110.493 53.7443C110.506 53.5536 110.514 53.576 110.493 53.7443C110.492 53.7522 110.492 53.76 110.491 53.7679C112.064 53.1992 112.478 52.6284 112.478 52.6284C112.478 52.6284 113.323 58.7832 117.481 58.8369C121.185 58.8851 122.559 55.1153 122.567 53.5374C123.191 53.544 124.347 53.169 124.32 53.1477C124.32 53.1477 125.677 58.5289 129.467 58.8053C131.246 58.9351 132.581 57.8105 133.342 57.2975C135.13 58.7364 141.084 60.5742 144.843 54.2405C145.374 53.3315 144.233 52.2577 144.033 52.1175ZM60.1018 56.716C58.2853 56.716 57.1204 55.047 57.1204 53.2474C57.1204 51.4479 58.1897 49.7789 60.0062 49.7789C60.8236 49.7789 61.2784 49.8683 61.915 50.4185C62.0304 50.8705 62.3576 51.9132 62.5168 52.3868C62.7301 53.0204 62.9839 53.5597 63.2397 54.1468C62.8742 55.6524 61.676 56.716 60.1018 56.716ZM64.5284 50.4714C64.4528 50.3518 64.4686 50.4253 64.3841 50.3123C64.0511 49.4122 63.4094 47.4032 63.3351 45.1213C63.2511 42.54 63.6841 39.5143 64.9605 39.5143C65.8253 39.5143 66.7445 45.6464 64.5282 50.4714H64.5284ZM90.1055 47.7818C89.9006 46.25 89.8899 39.4213 91.5397 39.6093C92.4506 39.976 90.9621 46.4197 90.1055 47.7818ZM102.152 47.7818C101.947 46.25 101.937 39.4213 103.586 39.6093C104.497 39.976 103.009 46.4197 102.152 47.7818ZM114.104 47.8769C113.898 46.345 113.888 39.5162 115.537 39.7043C116.448 40.071 114.96 46.5149 114.104 47.8769ZM127.298 39.2096C128.806 39.0542 128.744 45.5994 125.716 49.7316C125.326 48.238 124.727 39.7224 127.298 39.2095V39.2096ZM133.637 53.2935C133.153 50.8618 134.405 49.2647 135.695 49.0896C136.146 49.018 136.8 49.3083 136.93 49.8512C137.145 50.8742 136.899 52.3916 134.011 54.317C134.015 54.3334 133.745 53.8351 133.637 53.2935H133.637Z" fill="#132238"/>
</g>
</g>
<defs>
<clipPath id="clip0_480_6217">
<rect width="90" height="22" fill="white" transform="translate(55 37)"/>
</clipPath>
</defs>
</svg>
