<svg width="200" height="96" viewBox="0 0 200 96" fill="none" xmlns="http://www.w3.org/2000/svg">
<rect width="200" height="96" rx="12" fill="white"/>
<g opacity="0.4">
<g clip-path="url(#clip0_480_6241)">
<path d="M61.6849 35.0029H62.6009C65.7807 35.0728 68.9087 36.3662 71.1554 38.6558C70.3259 39.5122 69.479 40.3336 68.6668 41.19C67.4052 40.0365 65.8844 39.1451 64.2253 38.8305C61.7713 38.3062 59.1272 38.7781 57.0707 40.1938C54.824 41.6794 53.3032 44.1962 52.9748 46.8877C52.6119 49.5443 53.355 52.3407 55.066 54.4031C56.7077 56.413 59.2136 57.6714 61.8059 57.7588C64.2253 57.8986 66.7485 57.1471 68.5113 55.4343C69.8938 54.2283 70.5332 52.3932 70.7406 50.6104C67.8718 50.6104 65.003 50.6279 62.1342 50.6104V47.0101H74.2143C74.8364 50.8726 73.9378 55.2245 71.0344 57.986C69.0988 59.9435 66.4201 61.097 63.6896 61.3242C61.0455 61.5864 58.3149 61.0795 55.9646 59.7862C53.1477 58.2656 50.901 55.6964 49.795 52.6728C48.7581 49.8939 48.7408 46.7479 49.7086 43.9515C50.5899 41.3997 52.2836 39.1451 54.4611 37.5721C56.5522 36.0166 59.0926 35.1602 61.6849 35.0029Z" fill="#132238"/>
<path d="M130.985 35.9121H134.684V60.8702C133.457 60.8702 132.212 60.8876 130.985 60.8527C131.003 52.5508 130.985 44.2315 130.985 35.9121Z" fill="#132238"/>
<path d="M82.4405 44.5632C84.7217 44.1263 87.193 44.6157 89.0767 45.9964C90.7876 47.2198 91.9801 49.1424 92.343 51.2397C92.8096 53.6691 92.222 56.3257 90.6667 58.2482C88.9903 60.398 86.2425 61.5515 83.5638 61.3767C81.1098 61.2369 78.7249 59.996 77.2732 57.9686C75.6314 55.7314 75.2339 52.6554 76.1326 50.0337C77.0312 47.2198 79.5717 45.0701 82.4405 44.5632ZM82.9589 47.884C82.0257 48.1287 81.1616 48.6705 80.5395 49.4395C78.8631 51.4669 78.9668 54.7702 80.816 56.6578C81.8702 57.7414 83.4601 58.2482 84.9291 57.9511C86.2943 57.7064 87.4868 56.7801 88.1435 55.5567C89.2841 53.4768 88.9557 50.6105 87.2103 48.9851C86.0869 47.9364 84.4452 47.4995 82.9589 47.884Z" fill="#132238"/>
<path d="M100.759 44.5636C103.369 44.0567 106.22 44.7908 108.173 46.6434C111.353 49.5272 111.699 54.9278 108.985 58.2485C107.344 60.3458 104.682 61.4993 102.055 61.377C99.5495 61.3071 97.0782 60.0487 95.592 57.9689C93.9156 55.6793 93.5527 52.5333 94.5032 49.8593C95.4537 47.1328 97.9423 45.0529 100.759 44.5636ZM101.278 47.8843C100.344 48.129 99.4804 48.6708 98.8582 49.4223C97.1992 51.4148 97.2683 54.6656 99.0483 56.5707C100.103 57.7067 101.744 58.266 103.265 57.9514C104.613 57.6892 105.823 56.7804 106.48 55.557C107.603 53.4596 107.274 50.5933 105.512 48.9679C104.388 47.9193 102.747 47.4998 101.278 47.8843Z" fill="#132238"/>
<path d="M116.296 45.5768C118.283 44.3184 120.927 43.9689 123.07 45.0525C123.744 45.3496 124.297 45.8565 124.833 46.3633C124.85 45.8914 124.833 45.402 124.85 44.9127C126.008 44.9301 127.166 44.9127 128.341 44.9301V60.3454C128.324 62.6699 127.736 65.1343 126.077 66.8296C124.263 68.6997 121.48 69.2765 118.974 68.892C116.296 68.49 113.963 66.515 112.926 64.0157C113.963 63.5089 115.051 63.1069 116.123 62.635C116.728 64.0681 117.955 65.2916 119.493 65.5712C121.031 65.8509 122.811 65.4664 123.813 64.173C124.885 62.8447 124.885 61.027 124.833 59.4016C124.038 60.1881 123.122 60.8872 122.016 61.1494C119.614 61.831 116.97 60.9921 115.12 59.3492C113.254 57.7063 112.148 55.172 112.252 52.6553C112.304 49.8064 113.893 47.0624 116.296 45.5768ZM119.873 47.814C118.819 47.9887 117.834 48.583 117.16 49.4044C115.535 51.3619 115.535 54.4904 117.177 56.4129C118.11 57.549 119.614 58.1782 121.065 58.0209C122.431 57.8811 123.692 57.0072 124.366 55.8012C125.507 53.7563 125.317 50.9774 123.779 49.1947C122.828 48.0936 121.307 47.5518 119.873 47.814Z" fill="#132238"/>
<path d="M139.125 46.4683C141.199 44.5109 144.396 43.8467 147.057 44.8779C149.581 45.8392 151.188 48.2685 152 50.7678C148.25 52.3408 144.517 53.8963 140.767 55.4693C141.285 56.4655 142.08 57.3744 143.152 57.7414C144.655 58.2832 146.453 58.091 147.714 57.0773C148.215 56.6928 148.613 56.1859 148.993 55.6965C149.944 56.3432 150.894 56.9724 151.845 57.6191C150.497 59.6639 148.233 61.0971 145.796 61.3243C143.1 61.6564 140.231 60.6077 138.486 58.4755C135.617 55.1198 135.893 49.492 139.125 46.4683ZM140.974 49.7017C140.387 50.5581 140.145 51.6068 140.162 52.6379C142.668 51.5893 145.174 50.5406 147.68 49.4745C147.265 48.4958 146.263 47.9015 145.243 47.7442C143.601 47.4471 141.89 48.3385 140.974 49.7017Z" fill="#132238"/>
</g>
</g>
<defs>
<clipPath id="clip0_480_6241">
<rect width="103" height="34" fill="white" transform="translate(49 35)"/>
</clipPath>
</defs>
</svg>
