<svg width="200" height="96" viewBox="0 0 200 96" fill="none" xmlns="http://www.w3.org/2000/svg">
<rect width="200" height="96" rx="12" fill="white"/>
<g opacity="0.4">
<g clip-path="url(#clip0_480_6233)">
<path d="M100.557 56.5221C100.557 56.9089 100.557 56.9968 100.814 57.2341L102.254 58.6757V58.7372H95.8688V55.9684C95.226 57.7931 93.5261 59 91.6345 58.9745C88.3517 58.9745 85.9689 56.3375 85.9689 51.4855C85.9689 46.9411 88.5401 43.9086 92.1487 43.9086C93.7483 43.8055 95.237 44.7504 95.8601 46.2643V40.1556C95.8835 40.0172 95.8687 39.875 95.8172 39.7446C95.7658 39.6143 95.6797 39.501 95.5686 39.4172L94.1972 38.0636V38.0021L100.557 37.2373V56.5221ZM95.8688 55.6431V46.528C95.6419 46.2378 95.3523 46.0045 95.0224 45.846C94.6924 45.6875 94.3309 45.608 93.9658 45.6138C92.4145 45.6138 90.9145 47.0554 90.9145 51.3361C90.9145 55.3443 92.2088 56.7595 93.8202 56.7595C94.2242 56.7503 94.6204 56.6444 94.9763 56.4504C95.3323 56.2564 95.638 55.9798 95.8685 55.6431H95.8688ZM104.791 58.7372V46.4313C104.812 46.2963 104.799 46.1583 104.754 46.0295C104.709 45.9007 104.634 45.7851 104.534 45.6929L103.12 44.1987V44.1371H109.506V56.6188C109.506 57.0056 109.506 57.0935 109.763 57.3308L111.168 58.6844V58.746L104.791 58.7372ZM104.56 39.6367C104.56 38.1805 105.711 37 107.131 37C108.551 37 109.703 38.1808 109.703 39.637C109.703 41.0932 108.551 42.274 107.131 42.274C105.711 42.274 104.56 41.0932 104.56 39.637V39.6367ZM126.734 56.4958C126.734 56.8825 126.734 56.9968 126.991 57.2341L128.431 58.6757V58.7372H122.011V55.5816C121.426 57.5769 119.645 58.9511 117.614 58.9745C114.768 58.9745 113.243 56.8474 113.243 52.8216C113.243 50.879 113.243 48.7518 113.302 46.361C113.326 46.2298 113.314 46.0948 113.269 45.9697C113.224 45.8446 113.147 45.7339 113.045 45.649L111.631 44.1987V44.1371H117.965V52.1623C117.965 54.7993 118.343 56.5573 119.954 56.5573C120.381 56.529 120.795 56.3928 121.157 56.161C121.519 55.9292 121.819 55.6091 122.028 55.23V46.4401C122.048 46.3051 122.035 46.1671 121.99 46.0383C121.946 45.9095 121.87 45.7939 121.771 45.7017L120.348 44.1987V44.1371H126.734V56.4958ZM148.47 58.7372C148.47 58.2625 148.556 52.2151 148.556 50.8263C148.556 48.1893 148.153 46.3698 146.345 46.3698C145.895 46.3847 145.454 46.5072 145.06 46.7271C144.665 46.947 144.327 47.2583 144.073 47.6355C144.255 48.4574 144.341 49.2983 144.33 50.1406C144.33 51.9689 144.27 54.2983 144.245 56.6276C144.221 56.7587 144.233 56.8938 144.278 57.0189C144.323 57.144 144.401 57.2547 144.502 57.3396L145.942 58.6932V58.7548H139.496C139.496 58.3153 139.582 52.2326 139.582 50.8438C139.582 48.1629 139.179 46.3873 137.396 46.3873C136.962 46.4042 136.54 46.5323 136.168 46.7598C135.796 46.9874 135.488 47.3068 135.271 47.6883V56.654C135.271 57.0407 135.271 57.1286 135.528 57.366L136.934 58.7196V58.7811H130.556V46.4752C130.577 46.3402 130.564 46.2022 130.519 46.0734C130.474 45.9447 130.399 45.8291 130.299 45.7369L128.885 44.1987V44.1371H135.271V47.2663C135.863 45.2007 137.749 43.8125 139.848 43.8998C141.973 43.8998 143.413 45.1128 144.022 47.4158C144.698 45.2918 146.643 43.8667 148.822 43.8998C151.667 43.8998 153.279 46.0533 153.279 50.1231C153.279 52.0656 153.219 54.2807 153.193 56.61C153.169 56.7446 153.183 56.8834 153.235 57.0098C153.286 57.1362 153.373 57.2447 153.484 57.322L154.89 58.6757V58.7372H148.47ZM68.2521 56.821L70.1464 58.6757V58.7372H60.538V58.6757L62.4667 56.821C62.5679 56.7361 62.6451 56.6254 62.6903 56.5003C62.7355 56.3752 62.747 56.2401 62.7238 56.109V44.2514C62.7238 43.7504 62.7238 43.0735 62.8093 42.4934L56.3294 58.9748H56.2526L49.5412 43.8122C49.3953 43.4342 49.3526 43.4079 49.2581 43.1529V53.0943C49.1778 53.7594 49.288 54.4338 49.5756 55.0369L52.2753 58.6759V58.7375H45.1099V58.6759L47.8099 55.0281C48.0951 54.4274 48.2051 53.7564 48.1268 53.0943V42.1069C48.171 41.5668 48.0118 41.0298 47.6813 40.6039L45.77 38.0636V38.0021H52.6269L58.3696 50.8441L63.4267 38.0021H70.1377V38.0636L68.2521 40.2171C68.141 40.3009 68.055 40.4142 68.0035 40.5445C67.9521 40.6749 67.9372 40.8171 67.9606 40.9555V56.1093C67.9361 56.2439 67.9506 56.3828 68.0023 56.5092C68.0541 56.6356 68.141 56.744 68.2524 56.8213L68.2521 56.821ZM75.7692 50.879V50.9405C75.7692 54.7026 77.6635 56.2145 79.8833 56.2145C81.7369 56.2792 83.4526 55.2133 84.2546 53.4984H84.3147C83.5434 57.2165 81.2975 58.9745 77.9376 58.9745C74.312 58.9745 70.892 56.7331 70.892 51.5382C70.892 46.0797 74.3207 43.8998 78.1089 43.8998C81.1605 43.8998 84.4089 45.3765 84.4089 50.1231V50.879H75.7692ZM75.7692 50.1231H79.9949V49.3583C79.9949 45.4908 79.2148 44.4624 78.0405 44.4624C76.6177 44.4624 75.7521 46.0006 75.7521 50.1231H75.7692Z" fill="#132238"/>
</g>
</g>
<defs>
<clipPath id="clip0_480_6233">
<rect width="110" height="22" fill="white" transform="translate(45 37)"/>
</clipPath>
</defs>
</svg>
