<svg width="200" height="96" viewBox="0 0 200 96" fill="none" xmlns="http://www.w3.org/2000/svg">
<rect width="200" height="96" rx="12" fill="white"/>
<g opacity="0.4">
<g clip-path="url(#clip0_480_6221)">
<path d="M162 46.7626V44.6219H159.314V41.294L159.223 41.3215L156.7 42.0855L156.651 42.1004V44.622H152.668V43.2173C152.668 42.5632 152.816 42.0626 153.107 41.7288C153.397 41.399 153.81 41.2313 154.338 41.2313C154.717 41.2313 155.11 41.3198 155.505 41.4941L155.604 41.538V39.2835L155.558 39.2666C155.189 39.1354 154.688 39.0693 154.066 39.0693C153.282 39.0693 152.57 39.2381 151.95 39.5725C151.328 39.9074 150.84 40.3854 150.497 40.9932C150.156 41.6004 149.983 42.3016 149.983 43.0775V44.6219H148.113V46.7626H149.983V55.7809H152.668V46.7626H156.651V52.4936C156.651 54.8539 157.776 56.05 159.994 56.05C160.359 56.05 160.743 56.0077 161.134 55.9249C161.533 55.8399 161.805 55.755 161.965 55.6643L162 55.6436V53.4832L161.891 53.5546C161.745 53.6507 161.564 53.7292 161.351 53.7877C161.137 53.8471 160.959 53.8769 160.82 53.8769C160.301 53.8769 159.916 53.7383 159.678 53.4648C159.436 53.1888 159.314 52.7061 159.314 52.0309V46.7626H162ZM142.116 53.8773C141.142 53.8773 140.373 53.5575 139.832 52.9275C139.287 52.2944 139.011 51.3917 139.011 50.2448C139.011 49.0615 139.287 48.1354 139.832 47.4911C140.374 46.851 141.135 46.5262 142.094 46.5262C143.026 46.5262 143.767 46.8364 144.298 47.4489C144.831 48.0644 145.102 48.9831 145.102 50.1802C145.102 51.3919 144.847 52.3227 144.345 52.9454C143.846 53.5633 143.097 53.8773 142.116 53.8773ZM142.236 44.3531C140.376 44.3531 138.899 44.8923 137.846 45.9557C136.794 47.0192 136.261 48.4909 136.261 50.3304C136.261 52.0776 136.781 53.4829 137.809 54.5067C138.836 55.5309 140.234 56.0497 141.964 56.0497C143.766 56.0497 145.214 55.503 146.266 54.4249C147.319 53.348 147.852 51.8901 147.852 50.0936C147.852 48.3191 147.351 46.9033 146.364 45.8863C145.377 44.8688 143.987 44.3531 142.236 44.3531ZM131.931 44.3531C130.667 44.3531 129.62 44.6733 128.821 45.3045C128.017 45.9395 127.609 46.7724 127.609 47.7802C127.609 48.3041 127.697 48.7694 127.87 49.1641C128.045 49.5601 128.314 49.9088 128.673 50.2014C129.029 50.4916 129.577 50.7956 130.305 51.105C130.917 51.354 131.373 51.5647 131.662 51.7307C131.946 51.8934 132.146 52.057 132.26 52.2163C132.37 52.3722 132.426 52.5855 132.426 52.8488C132.426 53.5985 131.859 53.9633 130.692 53.9633C130.259 53.9633 129.765 53.8738 129.224 53.6975C128.686 53.5237 128.179 53.2693 127.72 52.9432L127.609 52.864V55.4224L127.65 55.4412C128.03 55.6148 128.509 55.7611 129.073 55.8763C129.637 55.9916 130.149 56.0502 130.594 56.0502C131.966 56.0502 133.071 55.7285 133.878 55.0935C134.689 54.4541 135.101 53.6016 135.101 52.5589C135.101 51.8068 134.879 51.1617 134.443 50.6415C134.009 50.1255 133.257 49.6518 132.208 49.2331C131.372 48.9011 130.836 48.6254 130.615 48.4138C130.402 48.2094 130.294 47.9203 130.294 47.5542C130.294 47.2297 130.428 46.9697 130.702 46.7592C130.978 46.5476 131.362 46.44 131.844 46.44C132.292 46.44 132.75 46.5099 133.205 46.647C133.66 46.784 134.059 46.9676 134.393 47.1922L134.502 47.2663V44.8395L134.46 44.8216C134.153 44.691 133.747 44.5793 133.254 44.4886C132.763 44.3986 132.318 44.3531 131.931 44.3531ZM120.609 53.8773C119.635 53.8773 118.866 53.5575 118.325 52.9275C117.78 52.2944 117.504 51.3919 117.504 50.2448C117.504 49.0615 117.78 48.1354 118.325 47.4911C118.867 46.851 119.628 46.5262 120.588 46.5262C121.518 46.5262 122.259 46.8364 122.79 47.4489C123.324 48.0644 123.595 48.9831 123.595 50.1802C123.595 51.3919 123.34 52.3227 122.838 52.9454C122.339 53.5633 121.59 53.8773 120.609 53.8773ZM120.729 44.3531C118.869 44.3531 117.392 44.8923 116.34 45.9557C115.287 47.0192 114.753 48.4909 114.753 50.3304C114.753 52.0783 115.275 53.4829 116.302 54.5067C117.329 55.5309 118.727 56.0497 120.457 56.0497C122.259 56.0497 123.707 55.503 124.759 54.4249C125.812 53.348 126.345 51.8901 126.345 50.0936C126.345 48.3191 125.844 46.9033 124.857 45.8863C123.869 44.8688 122.48 44.3531 120.729 44.3531ZM110.677 46.5544V44.6219H108.025V55.7807H110.677V50.0725C110.677 49.1019 110.9 48.3045 111.339 47.7022C111.772 47.1071 112.349 46.8056 113.054 46.8056C113.293 46.8056 113.561 46.8446 113.852 46.9217C114.139 46.9983 114.347 47.0816 114.47 47.1692L114.582 47.2491V44.6028L114.539 44.5846C114.292 44.4807 113.942 44.4283 113.5 44.4283C112.833 44.4283 112.237 44.6403 111.726 45.0576C111.278 45.4244 110.954 45.9273 110.706 46.5544H110.677ZM103.275 44.3531C102.058 44.3531 100.973 44.6113 100.05 45.1204C99.1246 45.6306 98.4091 46.359 97.9223 47.2852C97.4377 48.2092 97.1916 49.2884 97.1916 50.4921C97.1916 51.5464 97.4302 52.514 97.9017 53.3667C98.3735 54.2209 99.0413 54.8891 99.8865 55.3525C100.731 55.8154 101.706 56.0501 102.786 56.0501C104.047 56.0501 105.123 55.8007 105.986 55.3089L106.021 55.2891V52.8843L105.909 52.9648C105.518 53.2466 105.082 53.4715 104.612 53.6335C104.143 53.7954 103.715 53.8773 103.341 53.8773C102.3 53.8773 101.464 53.555 100.858 52.9196C100.25 52.2834 99.942 51.39 99.942 50.2659C99.942 49.1347 100.263 48.2183 100.897 47.5422C101.528 46.8681 102.365 46.5262 103.384 46.5262C104.256 46.5262 105.106 46.8183 105.91 47.3953L106.021 47.4752V44.9414L105.985 44.9214C105.682 44.7538 105.27 44.6154 104.758 44.5105C104.248 44.4059 103.749 44.3531 103.275 44.3531ZM95.3649 44.622H92.7125V55.7807H95.3649V44.622ZM94.0658 39.8684C93.6292 39.8684 93.2485 40.0155 92.9357 40.3069C92.6216 40.5991 92.4622 40.9671 92.4622 41.4014C92.4622 41.8288 92.6197 42.19 92.9308 42.4745C93.2399 42.7582 93.6219 42.902 94.0659 42.902C94.5098 42.902 94.8932 42.7582 95.206 42.475C95.5209 42.19 95.6805 41.8289 95.6805 41.4014C95.6805 40.9823 95.5251 40.6181 95.219 40.3187C94.9131 40.0198 94.525 39.8684 94.0658 39.8684ZM87.4479 43.7987V55.7807H90.1548V40.21H86.4083L81.6463 51.7754L77.025 40.21H73.126V55.7806H75.6698V43.7976H75.7571L80.6371 55.7807H82.5568L87.3605 43.7987H87.4479Z" fill="#132238"/>
<path d="M51.4777 47.355H39V35.0068H51.4777V47.355Z" fill="#132238"/>
<path d="M65.2544 47.355H52.777V35.0068H65.2544V47.355Z" fill="#132238"/>
<path d="M51.4773 60.9935H39V48.6455H51.4773V60.9935Z" fill="#132238"/>
<path d="M65.2544 60.9935H52.777V48.6455H65.2544V60.9935Z" fill="#132238"/>
</g>
</g>
<defs>
<clipPath id="clip0_480_6221">
<rect width="123" height="26" fill="white" transform="translate(39 35)"/>
</clipPath>
</defs>
</svg>
